<svg t="1648262412156" class="icon" viewBox="0 0 1024 1024" version="1.1" xmlns="http://www.w3.org/2000/svg" p-id="1860" width="80" height="80"><path d="M954.3 166.559c24.443 0 44.296 19.807 44.296 44.08v414.408c0 24.25-19.805 44.08-44.296 44.08H694.677v49.813h204.428c24.442 0 44.296 19.807 44.296 44.08v82.954c0 24.241-19.806 44.079-44.296 44.079H457.276c-24.443 0-44.287-19.806-44.287-44.079v-38.707h-66.281c-21.285 0-38.704 17.388-38.704 38.707v55.195c0 54.802-44.6 99.419-99.421 99.419-54.81 0-99.418-44.609-99.418-99.419V337.696H98.25c-24.442 0-44.294-19.805-44.294-44.08 0-12.037-5.39-26.115-8.868-29.808-12.229-12.221-18.683-35.917-18.683-53.137V72.707c0-24.451 19.805-44.295 44.295-44.295h110.353c24.443 0 44.295 19.805 44.295 44.295v137.964c0 17.204-6.495 40.9-18.684 53.137-3.492 3.693-8.874 17.796-8.874 29.808 0 24.25-19.796 44.08-44.297 44.08h-11.116v563.473c0 36.502 29.802 66.278 66.273 66.278 36.669 0 66.27-29.809 66.27-66.278v-55.195c0-39.645 32.211-71.822 71.83-71.822h66.271v-11.124c0-24.242 19.804-44.08 44.296-44.08h204.244v-49.813H401.929c-24.242 0-44.079-19.799-44.079-44.072V210.647c0-24.242 19.805-44.079 44.079-44.079h552.38l-0.009-0.009zM678.179 495.458c53.874 0 104.985-19.067 145.381-53.874L712.623 330.649c-20.533 12.228-48.354 12.228-68.897 0L532.79 441.584c40.388 34.782 91.282 53.874 145.381 53.874h0.008z m24.09-198.526l11.837-11.644 156.648 156.657-11.636 11.836c-48.356 48.148-112.586 74.825-180.899 74.825s-132.751-26.662-180.899-74.825l-11.645-11.836 156.657-156.657 11.645 11.644c12.974 12.974 35.55 12.974 48.356 0h-0.064z m-256.117-42.021v325.896h464.044V254.911H446.152z m-33.123 359.02V221.763h530.316V613.93H413.029zM965.4 625.078V210.671c0-6.109-4.982-10.922-11.116-10.922h-552.38a10.91 10.91 0 0 0-7.719 3.202 10.893 10.893 0 0 0-3.196 7.72v414.407c0 5.95 4.99 10.907 10.915 10.907h552.38c6.103 0 11.116-4.98 11.116-10.907zM87.134 293.601c0 5.951 4.99 10.917 11.116 10.917h55.196c5.958 0 11.125-4.99 11.125-10.917 0-17.202 6.302-40.908 18.683-53.146 3.492-3.69 8.866-17.794 8.866-29.808v-66.271H59.52v66.271c0 12.037 5.398 26.118 8.874 29.808 12.415 12.221 18.677 35.918 18.677 53.146h0.063z m0 0" p-id="1861" fill="#ffffff"></path></svg>