<svg t="1646732484622" class="icon" viewBox="0 0 1024 1024" version="1.1" xmlns="http://www.w3.org/2000/svg" p-id="6438" width="350" height="350"><path d="M245.76 585.728a320.512 320.512 0 0 1 61.44 7.68 249.856 249.856 0 0 0 47.616 4.608 282.112 282.112 0 0 0 167.936-57.344 153.6 153.6 0 0 0 65.024-102.4A94.208 94.208 0 0 0 563.2 362.496L558.592 358.4A216.576 216.576 0 0 1 512 153.6a38.4 38.4 0 0 0-29.184-45.568h-8.192a37.888 37.888 0 0 0-35.84 25.088v5.12a294.4 294.4 0 0 0 66.56 275.968 23.552 23.552 0 0 1 6.656 18.432 80.896 80.896 0 0 1-35.328 47.616 204.8 204.8 0 0 1-118.272 41.472 162.816 162.816 0 0 1-31.744-3.072A358.4 358.4 0 0 0 246.784 512c-116.224 0-182.784 71.168-187.904 200.192a603.136 603.136 0 0 0 7.68 113.664v8.704l4.608 27.648a96.768 96.768 0 0 1 0 11.264v2.56a38.4 38.4 0 0 0 38.4 35.84A38.4 38.4 0 0 0 153.6 870.4a204.8 204.8 0 0 0-3.072-25.6l-4.608-29.184v-13.312a481.792 481.792 0 0 1-5.632-90.112c-1.536-88.064 31.744-126.464 105.472-126.464z" p-id="6439" fill="#8854d0"></path><path d="M962.56 460.8a231.936 231.936 0 0 0-89.6-160.768l-2.56-5.12a199.68 199.68 0 0 0-113.664-33.28 233.472 233.472 0 0 0-79.36 13.824 128 128 0 0 1-25.088-116.224 38.4 38.4 0 0 0-25.088-48.128 30.208 30.208 0 0 0-11.776 0 38.4 38.4 0 0 0-36.352 26.624 211.968 211.968 0 0 0 60.416 215.04 38.912 38.912 0 0 0 47.616 6.144 141.824 141.824 0 0 1 69.632-17.408 120.832 120.832 0 0 1 70.144 16.896 160.256 160.256 0 0 1 59.904 109.568 313.856 313.856 0 0 1-70.656 227.328 372.224 372.224 0 0 1-280.064 134.656 204.8 204.8 0 0 1-93.696-19.456 217.088 217.088 0 0 1-60.928-46.592 698.368 698.368 0 0 1-51.2-77.824v-3.584l-3.072-5.12a56.32 56.32 0 0 0-44.032-23.552 51.2 51.2 0 0 0-12.8 0c-64.512 15.36-93.696 102.4-77.312 228.352a38.4 38.4 0 0 0 37.888 33.28h4.608a37.888 37.888 0 0 0 33.28-42.496V870.4a282.112 282.112 0 0 1 9.216-124.928 563.2 563.2 0 0 0 51.2 71.168A288.256 288.256 0 0 0 409.6 879.616a281.088 281.088 0 0 0 129.024 28.16 445.952 445.952 0 0 0 340.48-164.352A390.656 390.656 0 0 0 962.56 460.8z" p-id="6440" fill="#8854d0"></path><path d="M536.576 729.6a10.24 10.24 0 0 0 0 3.584 35.84 35.84 0 0 0 38.4 34.304 247.296 247.296 0 0 0 210.944-140.8l2.56-5.12a44.032 44.032 0 0 0 2.56-13.824 38.4 38.4 0 0 0-74.24-14.848v2.56a160.256 160.256 0 0 1-143.36 99.328 36.352 36.352 0 0 0-36.864 34.816z" p-id="6441" fill="#8854d0"></path></svg>