<svg t="1648022980507" class="icon" viewBox="0 0 1024 1024" version="1.1" xmlns="http://www.w3.org/2000/svg" p-id="5487" width="350" height="350"><path d="M3.775829 459.844267l290.474667 34.986666a219.579733 219.579733 0 0 0 131.6864 228.078934l-114.926933 269.073066C105.629696 904.567467-19.434837 692.599467 2.478763 471.313067l1.262933-11.4688z m1009.083734 0c2.3552 19.456 3.584 38.843733 3.720533 58.094933l-0.068267 11.537067c-3.072 195.6864-119.125333 375.842133-300.373333 457.864533l-10.513067 4.642133-114.961066-269.073066a219.613867 219.613867 0 0 0 132.573866-219.306667l-0.887466-8.772267 290.474666-34.952533zM68.560896 536.439467l0.546133 11.946666a444.928 444.928 0 0 0 207.9744 349.252267l62.464-146.261333a288.494933 288.494933 0 0 1-113.083733-195.925334l-157.9008-19.012266z m879.445333 0l-157.934933 19.0464-0.375467 3.652266a288.494933 288.494933 0 0 1-112.64 192.238934l62.464 146.261333a444.928 444.928 0 0 0 208.110934-351.505067l0.375466-9.693866z m-442.845866-170.666667a146.295467 146.295467 0 0 1 7.099733 292.386133l-7.099733 0.170667a146.295467 146.295467 0 0 1-7.099734-292.420267l7.099734-0.170666z m0 68.266667a78.0288 78.0288 0 1 0 0 155.989333 78.0288 78.0288 0 0 0 0-155.989333z m226.850133 147.831466l-9.659733-87.005866 8.157866 67.7888 59.562667-7.168-4.949333 8.157866c1.3312-13.4144-3.9936 20.48-4.608 6.7584h-11.810134l-36.693333 11.4688z m284.501333-57.685333l0.068267 5.3248c2.048 16.827733-24.4736 38.7072-41.437867 25.941333a394.274133 394.274133 0 0 0-27.136-19.012266l68.5056-8.226134v-4.027733l-71.441066-56.046933 71.441066 56.046933zM505.160363 0c141.380267 0 269.4144 57.344 362.052266 149.981867l-206.882133 206.848a218.7264 218.7264 0 0 0-145.134933-64.034134l-10.0352-0.238933a218.624 218.624 0 0 0-148.411734 57.821867l-6.7584 6.485333-206.848-206.882133A510.327467 510.327467 0 0 1 491.472896 0.170667L505.194496 0z m0 68.266667c-95.914667 0-186.845867 30.5152-261.802667 85.4016l112.401067 112.4352a286.856533 286.856533 0 0 1 149.4016-41.813334c53.6576 0 105.0624 14.813867 149.4016 41.7792l112.401066-112.401066-10.786133-7.68A441.7536 441.7536 0 0 0 505.160363 68.266667z" p-id="5488" fill="#84817a"></path></svg>