<svg t="1645514429855" class="icon" viewBox="0 0 1024 1024" version="1.1" xmlns="http://www.w3.org/2000/svg" p-id="8306" width="350" height="350"><path d="M305.357 911.36a52.541 52.541 0 0 1-28.739-8.53A432.712 432.712 0 0 1 81.981 565.422a52.623 52.623 0 0 1 52.506-55.414h176.364A52.142 52.142 0 0 1 363.075 557a149.898 149.898 0 0 0 61.04 106.168 52.67 52.67 0 0 1 14.9 68.992l-88.177 152.883a52.828 52.828 0 0 1-33.362 24.889 52.224 52.224 0 0 1-12.12 1.428zM150.072 577.106A365.568 365.568 0 0 0 300.6 837.955l73.995-128.323a217.196 217.196 0 0 1-76.473-132.541h-148.05z m146.274-13.466a0.18 0.18 0 0 1 0.005 0z m422.297 347.72a52.224 52.224 0 0 1-12.119-1.418 52.828 52.828 0 0 1-33.362-24.889L584.986 732.16a52.67 52.67 0 0 1 14.914-69.002 149.908 149.908 0 0 0 61.04-106.169A52.137 52.137 0 0 1 713.166 510h176.363a52.613 52.613 0 0 1 52.506 55.423A432.712 432.712 0 0 1 747.397 902.83a52.526 52.526 0 0 1-28.754 8.53z m-69.238-201.728l74.005 128.307a365.62 365.62 0 0 0 150.528-260.848h-148.06a217.21 217.21 0 0 1-76.473 132.541z m-54.579-302.223a53.166 53.166 0 0 1-22.395-4.962 149.658 149.658 0 0 0-122.383-1.551 52.116 52.116 0 0 1-66.422-22.728l-85.98-154.112a52.66 52.66 0 0 1 22.764-72.914 431.841 431.841 0 0 1 389.176 5.602 52.628 52.628 0 0 1 20.68 73.533l-90.368 151.588a52.352 52.352 0 0 1-45.072 25.559z m-171.469-68.096h-0.025z m86.016-17.859a217.032 217.032 0 0 1 79.453 15.063l75.832-127.232a364.733 364.733 0 0 0-300.913-4.362l72.192 129.382a215.997 215.997 0 0 1 73.457-12.82zM512.804 650.399A109.568 109.568 0 1 1 622.316 540.83a109.676 109.676 0 0 1-109.512 109.568z m0-152.213a42.624 42.624 0 1 0 42.593 42.624 42.66 42.66 0 0 0-42.593-42.634z" p-id="8307" fill="#ffffff"></path></svg>