<svg t="1648022907777" class="icon" viewBox="0 0 1024 1024" version="1.1" xmlns="http://www.w3.org/2000/svg" p-id="4560" width="350" height="350"><path d="M691.2 614.4h-332.8c-43.52 0-76.8 33.28-76.8 76.8v51.2c0 15.36 12.8 25.6 25.6 25.6h25.6v179.2c0 15.36 12.8 25.6 25.6 25.6h307.2c12.8 0 25.6-10.24 25.6-25.6v-179.2h51.2c12.8 0 25.6-10.24 25.6-25.6v-51.2c0-43.52-33.28-76.8-76.8-76.8z m-51.2 307.2h-256v-153.6h256v153.6z m76.8-204.8h-384v-25.6c0-12.8 12.8-25.6 25.6-25.6h332.8c12.8 0 25.6 12.8 25.6 25.6v25.6z m-130.56-657.92c-43.52-7.68-84.48-7.68-128-5.12-217.6 25.6-391.68 207.36-407.04 424.96-10.24 166.4 66.56 314.88 189.44 404.48a25.6 25.6 0 0 0 40.96-20.48c0-7.68-5.12-15.36-10.24-20.48-110.08-81.92-176.64-217.6-166.4-358.4 12.8-194.56 168.96-355.84 360.96-378.88 15.36-2.56 30.72-2.56 46.08-2.56 225.28 0 409.6 184.32 409.6 409.6 0 133.12-64 256-168.96 330.24-7.68 5.12-10.24 12.8-10.24 20.48 0 20.48 23.04 33.28 40.96 20.48 120.32-87.04 197.12-230.4 189.44-389.12-7.68-217.6-174.08-396.8-386.56-435.2z" p-id="4561" fill="#303952"></path><path d="M360.96 535.04c-2.56-20.48-2.56-43.52 5.12-66.56 15.36-53.76 64-97.28 120.32-107.52 97.28-17.92 181.76 56.32 181.76 151.04 0 7.68 0 15.36-2.56 23.04-2.56 15.36 10.24 28.16 25.6 28.16 12.8 0 23.04-10.24 25.6-20.48 5.12-30.72 2.56-61.44-10.24-94.72-30.72-84.48-107.52-140.8-197.12-138.24-112.64 2.56-202.24 92.16-202.24 204.8 0 10.24 0 20.48 2.56 28.16 2.56 12.8 12.8 23.04 25.6 23.04 15.36-2.56 28.16-15.36 25.6-30.72z" p-id="4562" fill="#303952"></path><path d="M819.2 512m-25.6 0a25.6 25.6 0 1 0 51.2 0 25.6 25.6 0 1 0-51.2 0Z" p-id="4563" fill="#303952"></path><path d="M204.8 512m-25.6 0a25.6 25.6 0 1 0 51.2 0 25.6 25.6 0 1 0-51.2 0Z" p-id="4564" fill="#303952"></path></svg>