<svg t="1648023311781" class="icon" viewBox="0 0 1024 1024" version="1.1" xmlns="http://www.w3.org/2000/svg" p-id="7568" width="350" height="350"><path d="M725.550545 82.944c16.756364 0 29.882182 5.12 32.16291 20.992a26.810182 26.810182 0 0 1-2.141091 11.124364c19.781818 9.495273 56.692364 31.185455 56.692363 60.555636 0 5.771636-0.930909 11.636364-2.653091 17.594182 10.565818 11.636364 22.574545 30.813091 25.6 59.810909 1.210182 11.357091 1.768727 21.131636 1.629091 29.928727 4.049455 4.561455 8.610909 12.101818 12.753455 24.576 9.867636 29.463273 13.312 56.878545 8.704 83.968 9.309091 10.24 21.178182 30.440727 22.900363 67.956364 1.163636 25.274182-0.139636 53.248-8.192 78.848l2.46691 9.076363 2.327272 10.053819c5.352727 24.622545 11.031273 66.513455-2.327272 97.047272l-2.094546 4.514909c1.163636 13.032727 1.163636 30.394182-3.537454 48.54691 0.744727 7.354182 1.349818 16.058182 1.396363 25.320727 3.677091 15.080727 7.726545 39.098182 4.189091 62.091636l-3.397818 22.481455-1.908364 10.286545-2.513454 10.705455c-9.495273 35.886545-31.278545 74.100364-92.625455 74.100363-85.969455 0-163.700364-88.250182-184.459636-197.538909l-28.532364-44.032a338.571636 338.571636 0 0 0-8.843636-12.846545l-31.325091-16.709818-0.093091 0.232727-0.605091-0.558546-1.024-0.60509-8.983273 9.82109-4.328727-6.330181a445.579636 445.579636 0 0 1-1.768727-2.792728l-32.116364 16.942546-4.189091 6.004363-9.634909 14.429091-23.505454 36.445091c-20.805818 109.288727-98.536727 197.538909-184.459637 197.538909-58.321455 0-80.896-34.443636-91.136-68.747636l-2.839272-10.752-2.234182-10.519273-1.675637-10.007272-2.606545-17.547637c-3.537455-22.946909 0.558545-47.010909 4.189091-62.091636 0.093091-9.309091 0.651636-17.966545 1.396363-25.320727-4.654545-18.152727-4.701091-35.560727-3.490909-48.54691l-2.094545-4.514909c-11.310545-25.832727-8.983273-59.810909-4.794182-84.573091l2.373818-12.474181 2.327273-10.053819 2.513455-9.076363c-8.052364-25.6-9.309091-53.527273-8.192-78.801455 1.722182-37.562182 13.591273-57.716364 22.946909-68.002909-4.654545-27.089455-1.163636-54.458182 8.657454-83.968 4.189091-12.474182 8.704-20.014545 12.8-24.576a245.620364 245.620364 0 0 1 1.582546-29.928727c3.025455-28.997818 15.034182-48.174545 25.6-59.810909a64.558545 64.558545 0 0 1-2.653091-17.594182c0-29.416727 36.910545-51.060364 56.692363-60.555636a26.717091 26.717091 0 0 1-2.141091-11.124364c2.885818-20.061091 22.993455-22.946909 45.940364-20.061091-2.839273 47.243636 47.197091 83.781818 98.071273 108.450909-6.097455-9.681455-9.495273-21.131636-7.912727-31.744 2.792727-19.921455 25.786182-42.728727 37.282909-42.728727 3.258182 0 9.122909 3.025455 15.825454 7.354182l10.472727 7.214545 5.306182 3.956364 9.867637 7.726545 13.079272 10.798546c7.261091 3.397818 13.917091 4.980364 19.735273 5.492363l4.561455 0.186182c6.749091 0 14.848-1.396364 23.924363-5.678545l8.843637-7.354182 9.029818-7.214546c1.675636-1.303273 3.351273-2.653091 5.12-3.956363l10.565818-7.726546c8.797091-6.050909 16.896-10.798545 20.992-10.798545 11.496727 0 34.443636 22.807273 37.329455 42.728727a43.426909 43.426909 0 0 1-2.792728 21.410909l-4.282182 2.327273c45.009455-24.296727 85.038545-58.042182 82.478546-100.445091 4.747636-0.605091 9.402182-0.930909 13.777454-0.930909z m-144.896 499.293091l-13.451636-4.747636-0.744727 7.074909-0.930909 5.771636a11.077818 11.077818 0 0 1-0.930909 3.072c-2.513455 4.189091-7.307636 10.100364-12.753455 16.337455l17.128727 9.588363c17.454545 10.146909 37.515636 22.621091 53.806546 35.141818 27.834182 21.364364 84.340364 42.728727 128 42.728728 14.894545 0 28.299636-2.513455 38.539636-8.378182l9.634909-5.678546 9.914182-6.330181c32.907636-22.155636 64.139636-54.644364 41.099636-96.023273-16.197818 18.711273-39.982545 33.047273-75.031272 39.237818a272.151273 272.151273 0 0 1-47.336728 4.235636 248.692364 248.692364 0 0 1-108.916363-25.134545l-18.525091-9.169455a87.365818 87.365818 0 0 0-3.258182-1.442909l-4.654545-1.908363-11.589819-4.375273z m-106.58909 0.558545l-0.93091-10.053818-5.306181 1.675637-24.343273 8.517818-14.336 5.585454-23.924364 11.589818-11.543272 5.12c-31.092364 12.846545-78.894545 26.065455-142.568728 14.801455-35.048727-6.144-58.833455-20.526545-74.984727-39.237818-21.922909 39.284364 5.12 70.562909 36.165818 92.625454l9.867637 6.656 4.933818 3.072 9.681454 5.725091c38.167273 21.783273 120.413091-3.025455 160.581818-30.114909l5.911273-4.282182c11.310545-8.704 24.482909-17.408 37.329455-25.274181l18.757818-11.17091 16.663273-9.30909 7.074909-3.816728-6.935273-11.496727a12.753455 12.753455 0 0 1-1.070545-3.630545l-0.977455-6.981819z m370.594909-152.948363c-17.221818 30.906182-51.2 68.608-95.557819 84.107636a233.099636 233.099636 0 0 1-75.636363 11.822546c-34.071273 0-64.465455-6.376727-79.406546-14.708364l-7.168-3.863273-15.685818-8.145454-1.489454 37.934545-0.512 11.031273-3.397819-1.256727 24.110546 8.238545c47.941818 15.872 113.896727 35.002182 153.925818 35.002182 10.519273 0 19.223273-1.303273 25.367273-4.375273 44.497455-22.202182 110.592-76.8 75.403636-155.787636z m-375.296 61.998545l-14.149819 7.028364c-8.192 4.189091-16.290909 8.378182-23.226181 12.194909-25.832727 14.382545-97.605818 22.946909-154.996364 2.885818-44.404364-15.499636-78.382545-53.201455-95.604364-84.154182-30.114909 67.770182 14.103273 117.527273 55.389091 144.337455l10.24 6.237091c3.351273 1.908364 6.656 3.677091 9.821091 5.259636 17.221818 8.610909 54.923636 3.537455 95.371637-6.190545l22.248727-5.678546 11.124363-3.118545 21.876364-6.469818 30.533818-9.774546 26.065455-8.983273 7.307636-2.606545-1.536-37.143273a4199.936 4199.936 0 0 1-0.465454-13.824z m347.415272-152.157091c-5.12 6.237091-11.357091 12.567273-18.850909 19.456-34.443636 31.511273-83.316364 54.458182-126.324363 65.908364-12.334545 3.258182-29.789091 4.468364-48.453819 4.468364-16.756364 0-34.397091-0.930909-50.222545-2.141091-0.093091 12.241455-0.418909 24.389818-0.698182 36.212363l-3.397818-1.442909c26.903273 11.589818 60.509091 23.272727 86.760727 23.272727l4.514909-0.139636 23.505455-1.303273 15.732364-1.210181c39.191273-3.723636 76.334545-13.963636 95.697454-54.830546 14.056727-29.649455 19.595636-63.488 21.736727-88.250182z m-607.511272 0c2.141091 24.762182 7.68 58.600727 21.736727 88.250182 19.409455 40.866909 56.552727 51.060364 95.697454 54.830546l15.732364 1.210181 23.552 1.303273c30.394182 1.675636 72.704-14.475636 102.4-28.113454l-0.744727-30.999273-22.574546 1.768727c-31.883636 2.141091-69.12 2.839273-90.577454-2.885818-43.101091-11.450182-91.880727-34.397091-126.370909-65.908364a196.887273 196.887273 0 0 1-18.850909-19.456z m584.424727-114.594909c-17.687273 24.948364-46.219636 49.105455-79.034182 68.096-35.886545 20.759273-92.904727 35.281455-139.962182 43.613091l-0.698182 46.08 35.514182 0.372364h40.494546l21.085091-0.651637 6.237091-0.558545c20.107636-2.839273 111.988364-57.344 120.552727-103.191273a96.302545 96.302545 0 0 0-4.189091-53.76z m-561.338182 0a96.256 96.256 0 0 0-4.189091 53.76c8.610909 45.847273 100.491636 100.352 120.552727 103.191273l7.307637 0.605091 17.92 0.558545 32.349091 0.093091 60.509091-0.605091-0.744728-43.52C416.768 331.543273 351.138909 316.136727 311.389091 293.236364c-32.814545-18.990545-61.346909-43.147636-78.987636-68.096z m56.273455-77.591273c-14.848 8.890182-38.632727 25.6-34.629819 39.563637 26.484364 59.950545 118.039273 89.553455 184.692364 103.470545l18.245818 3.537455 8.517818 1.489454-0.418909-33.838545c-92.346182-24.064-148.898909-75.869091-176.407272-114.222546z m448.791272 0c-26.018909 36.212364-77.963636 84.526545-161.605818 110.08l-0.465454 35.281455-3.444364 0.698182 8.936727-1.722182 18.944-4.049455 20.014546-4.887272c60.974545-16.197818 129.861818-45.149091 152.296727-95.790546 3.304727-11.636364-12.660364-25.227636-26.670545-34.536727l-8.005819-5.073455z" p-id="7569" fill="#01a3a4"></path></svg>