<svg t="1646732508728" class="icon" viewBox="0 0 1024 1024" version="1.1" xmlns="http://www.w3.org/2000/svg" p-id="7446" width="350" height="350"><path d="M341.92 345.28l272 5.76a307.84 307.84 0 0 1 60 6.4l-3.2 3.36a48 48 0 0 0-1.6 61.92 114.08 114.08 0 0 1 9.76 15.2A48 48 0 0 0 720 464a49.12 49.12 0 0 0 17.12-3.2l126.72-48 4.48-1.92a78.56 78.56 0 0 1 27.68-8.16h1.76a59.84 59.84 0 0 1 13.12 19.84l-1.6 1.6a160 160 0 0 1-37.44 12.96 693.6 693.6 0 0 0-137.76 35.36 48 48 0 0 0-27.84 53.12c0.96 5.12 1.6 8.8 1.76 10.08a122.24 122.24 0 0 1-59.84 130.56 404.16 404.16 0 0 1-163.52 28.16h-17.28A417.92 417.92 0 0 1 304 666.56a122.08 122.08 0 0 1-59.84-130.24c4.16-27.36 18.24-86.4 40.64-113.92a48 48 0 0 0 2.4-57.76c-2.08-3.04-4.8-6.56-7.04-9.28l-3.2-3.36a310.4 310.4 0 0 1 64.96-6.72m0-48c-96 2.08-109.28 22.72-113.6 29.44A26.4 26.4 0 0 0 224 336a61.76 61.76 0 0 0 17.92 48l5.28 7.04c-35.52 43.52-49.44 126.72-51.04 136.96a169.92 169.92 0 0 0 83.04 178.88l3.36 1.92a459.36 459.36 0 0 0 184.96 32.96h17.28a448 448 0 0 0 184.48-32.96 14.08 14.08 0 0 0 3.36-1.92A169.76 169.76 0 0 0 755.68 528c0-1.76-0.96-6.08-2.08-12a682.72 682.72 0 0 1 128-32c57.12-14.08 63.2-27.52 63.2-27.52 39.52-37.28-13.28-88.32-13.28-88.32a46.56 46.56 0 0 0-35.52-13.44 124.96 124.96 0 0 0-49.28 12.64L720 416a149.92 149.92 0 0 0-14.56-22.4l2.72-3.04a56.64 56.64 0 0 0 19.68-45.28 30.72 30.72 0 0 0-7.84-17.76c-20-22.88-99.68-24.48-106.56-24.48l-272-5.76zM475.84 128a109.44 109.44 0 0 0-48 8.16c-12.8 8.48-3.2 12.64 2.08 16a33.44 33.44 0 0 1 16 34.08v1.12H432c-128 0-135.68 61.6-135.68 61.6a1111.04 1111.04 0 0 0 204 15.2c80.96 0 149.76-5.12 154.88-9.44-18.72-62.88-117.44-66.24-137.76-66.24h-3.52a33.92 33.92 0 0 1 21.28-37.6C546.72 136.96 510.56 128 475.84 128z" fill="#20bf6b" p-id="7447"></path><path d="M759.04 708.48c-99.2 153.12-477.12 141.6-580.8 0-72 40.8-96 18.4-109.12-60.8-17.92 119.36 8.48 148 117.76 133.44 62.56 19.36-6.4 76.8-58.56 84.64 102.72 48 144-11.2 214.72-11.36 77.12 16 162.56 27.84 245.76-2.24 27.52 40 156.16 62.72 224 23.52-136.8-8.8-121.6-67.36-64-70.56 75.84-4.16 169.28-60.32 149.6-128-27.2 48-106.72 75.2-139.84 32z" fill="#20bf6b" p-id="7448"></path></svg>